<svg xmlns="http://www.w3.org/2000/svg" aria-hidden="true" fill="currentColor" width="750" height="137" viewBox="0 0 750 137">
  <path id="katakana-project" d="M 466 43.1 L 475.3 43.1 L 475.3 34.5 L 443.9 34.5 L 443.9 27.4 L 494.4 27.4 L 494.4 34.5 L 483.4 34.5 L 483.4 50.2 L 465 50.2 A 51.042 51.042 0 0 0 463.563 50.219 Q 462.258 50.256 461.39 50.366 A 8.037 8.037 0 0 0 460.6 50.5 Q 459.3 50.8 458.4 51.5 Q 457.7 52.1 457.3 52.95 A 4.157 4.157 0 0 0 456.952 54.142 A 5.381 5.381 0 0 0 456.9 54.9 A 6.809 6.809 0 0 0 457.203 56.97 A 5.694 5.694 0 0 0 458.3 58.95 Q 459.7 60.6 461.3 61.9 A 30.277 30.277 0 0 1 465.236 60.831 A 34.296 34.296 0 0 1 466.2 60.65 Q 468.8 60.2 471.4 60.2 A 24.09 24.09 0 0 1 477 60.819 A 17.602 17.602 0 0 1 483.7 63.95 A 11.974 11.974 0 0 1 488.523 72.618 A 15.976 15.976 0 0 1 488.6 74.2 A 16.502 16.502 0 0 1 488.154 78.132 A 12.203 12.203 0 0 1 486 82.7 A 14.252 14.252 0 0 1 481.871 86.306 A 19.539 19.539 0 0 1 478.55 87.85 Q 473.7 89.6 466.9 89.6 L 464.6 89.6 Q 463.5 89.6 462.4 89.5 A 66.669 66.669 0 0 1 459.412 89.294 Q 457.94 89.157 456.643 88.96 A 35.357 35.357 0 0 1 455.15 88.7 Q 452.1 88.1 450.4 86.7 Q 448.7 85.3 448.7 83.1 A 5.893 5.893 0 0 1 448.958 81.319 A 4.854 4.854 0 0 1 450.05 79.45 A 4.317 4.317 0 0 1 452.061 78.249 Q 452.762 78.047 453.604 78.009 A 8.819 8.819 0 0 1 454 78 A 8.886 8.886 0 0 1 457 78.548 Q 458.396 79.047 459.85 80 A 26.279 26.279 0 0 1 461.728 81.371 Q 463.723 82.951 466.34 85.47 A 122.959 122.959 0 0 1 468 87.1 A 59.827 59.827 0 0 0 471.156 88.561 A 70.998 70.998 0 0 0 473.2 89.4 Q 476 90.5 479.1 91.55 Q 482.2 92.6 485.4 93.6 L 482.1 100.6 A 171.712 171.712 0 0 1 470.424 94.732 A 155.068 155.068 0 0 1 468.85 93.85 A 192.183 192.183 0 0 1 461.491 89.46 A 156.354 156.354 0 0 1 457.4 86.8 L 453.8 80.4 Q 456.416 81.563 459.923 82.162 A 36.281 36.281 0 0 0 460.15 82.2 Q 463.8 82.8 465.8 82.8 Q 472.8 82.8 476.65 80.75 A 7.644 7.644 0 0 0 478.958 78.928 Q 480.5 77.085 480.5 74.3 A 7.331 7.331 0 0 0 480.274 72.44 A 5.748 5.748 0 0 0 479.4 70.55 Q 478.3 69 476.2 68.2 A 11.139 11.139 0 0 0 474.211 67.661 Q 473.219 67.482 472.073 67.426 A 22.029 22.029 0 0 0 471 67.4 Q 468.1 67.4 465.2 68.1 A 29.295 29.295 0 0 0 462.127 69.014 A 23.131 23.131 0 0 0 460 69.9 A 38.448 38.448 0 0 1 454.671 65.986 A 35.585 35.585 0 0 1 454.35 65.7 A 18.745 18.745 0 0 1 451.308 62.219 A 16.716 16.716 0 0 1 450.35 60.6 A 13.085 13.085 0 0 1 448.917 55.137 A 15.503 15.503 0 0 1 448.9 54.4 A 13.151 13.151 0 0 1 449.078 52.18 Q 449.299 50.89 449.795 49.82 A 8.067 8.067 0 0 1 449.9 49.6 Q 450.9 47.6 452.6 46.3 Q 454.1 45.1 455.95 44.4 Q 457.8 43.7 460.25 43.4 A 36.339 36.339 0 0 1 462.207 43.218 Q 463.289 43.144 464.5 43.117 A 66.22 66.22 0 0 1 466 43.1 Z M 419.4 34.5 L 386.8 34.5 L 386.8 58.3 L 385 56.6 A 23.952 23.952 0 0 1 388.212 53.44 A 19.372 19.372 0 0 1 391.1 51.5 A 14.801 14.801 0 0 1 396.774 49.79 A 18.305 18.305 0 0 1 398.6 49.7 Q 405.1 49.7 409.2 53.85 Q 413.3 58 413.3 65.7 Q 413.3 70.3 411.8 75.5 A 32.63 32.63 0 0 1 408.702 82.714 A 39.647 39.647 0 0 1 406.8 85.7 L 399.6 81.6 A 27.197 27.197 0 0 0 402.844 76.238 A 32.113 32.113 0 0 0 403.7 74.2 Q 405.3 70 405.3 65.9 A 17.572 17.572 0 0 0 405.125 63.329 Q 404.93 62.018 404.52 60.966 A 6.981 6.981 0 0 0 403.3 58.9 A 6.56 6.56 0 0 0 399.11 56.688 A 9.441 9.441 0 0 0 397.8 56.6 Q 395.828 56.6 393.661 57.719 A 13.223 13.223 0 0 0 393.6 57.75 A 14.895 14.895 0 0 0 391.404 59.172 Q 390.302 60.023 389.2 61.15 Q 387.017 63.383 384.834 66.55 A 55.891 55.891 0 0 0 384.8 66.6 L 386.8 60.3 L 386.8 89.6 L 378.7 89.6 L 378.7 66.7 L 380.3 69 A 27.927 27.927 0 0 1 377.347 71.253 A 37.208 37.208 0 0 1 374.25 73.1 A 15.365 15.365 0 0 1 370.041 74.583 Q 368.247 74.948 366.192 74.994 A 26.659 26.659 0 0 1 365.6 75 A 18.998 18.998 0 0 1 361.464 74.567 A 15.63 15.63 0 0 1 358.4 73.55 A 17.112 17.112 0 0 1 355.686 72.026 A 12.741 12.741 0 0 1 353.3 69.9 Q 351.7 68 350.65 65.8 Q 349.6 63.6 349.15 60.8 A 32.689 32.689 0 0 1 348.846 58.21 Q 348.7 56.368 348.7 54.2 L 348.7 34.5 L 340.8 34.5 L 340.8 27.4 L 419.4 27.4 L 419.4 34.5 Z M 1080.7 27.4 L 1080.7 34.5 L 1070.4 34.5 L 1070.4 89.6 L 1062.3 89.6 L 1062.3 69.5 L 1063.8 72.1 A 34.645 34.645 0 0 1 1061.904 73.371 Q 1060.95 73.969 1059.863 74.577 A 56.804 56.804 0 0 1 1059.55 74.75 A 21.947 21.947 0 0 1 1056.563 76.103 A 28.973 28.973 0 0 1 1053.85 76.95 Q 1050.6 77.8 1046.3 77.8 A 25.627 25.627 0 0 1 1040.519 77.172 A 21.097 21.097 0 0 1 1036.25 75.7 A 17.795 17.795 0 0 1 1031.705 72.673 A 15.752 15.752 0 0 1 1029.3 69.85 A 14.853 14.853 0 0 1 1026.937 63.317 A 19.045 19.045 0 0 1 1026.8 61 A 19.667 19.667 0 0 1 1027.345 56.261 A 15.07 15.07 0 0 1 1029.55 51.3 A 16.431 16.431 0 0 1 1035.613 46.013 A 20.467 20.467 0 0 1 1037.25 45.25 A 26.211 26.211 0 0 1 1043.309 43.593 A 35.409 35.409 0 0 1 1048.7 43.2 A 32.926 32.926 0 0 1 1049.834 43.221 Q 1050.342 43.239 1050.909 43.271 A 66.368 66.368 0 0 1 1052.1 43.35 Q 1054.1 43.5 1056.05 43.7 A 33.537 33.537 0 0 1 1057.186 43.835 Q 1058.222 43.977 1058.936 44.157 A 8.753 8.753 0 0 1 1059.1 44.2 L 1058.5 51.1 Q 1056.5 50.7 1054 50.4 Q 1051.5 50.1 1049 50.1 A 25.627 25.627 0 0 0 1044.976 50.396 Q 1041.17 51.003 1038.65 52.85 A 8.926 8.926 0 0 0 1035.011 59.154 A 13.288 13.288 0 0 0 1034.9 60.9 A 12.77 12.77 0 0 0 1035.244 63.96 A 8.147 8.147 0 0 0 1038.25 68.65 A 12.404 12.404 0 0 0 1044.23 71.06 A 16.334 16.334 0 0 0 1046.4 71.2 A 22.211 22.211 0 0 0 1050.402 70.855 A 17.452 17.452 0 0 0 1053.75 69.9 A 22.856 22.856 0 0 0 1057.671 67.893 A 19.75 19.75 0 0 0 1059.45 66.6 A 31.608 31.608 0 0 0 1061.969 64.319 A 24.944 24.944 0 0 0 1063.6 62.5 L 1062.3 67.6 L 1062.3 34.5 L 1022.2 34.5 L 1022.2 27.4 L 1080.7 27.4 Z M 645 34.5 L 634.7 34.5 L 634.7 89.6 L 626.6 89.6 L 626.6 56.8 L 615.7 56.8 Q 610.717 56.8 607.769 57.201 A 20.952 20.952 0 0 0 606.55 57.4 A 12.396 12.396 0 0 0 604.141 58.119 A 8.992 8.992 0 0 0 601.6 59.7 Q 600.4 60.7 599.8 62.2 Q 599.2 63.7 599.2 65.9 Q 599.2 69.2 600.85 72.25 A 22.131 22.131 0 0 0 602.674 75.056 Q 603.973 76.773 605.75 78.55 Q 608.543 81.343 612.407 84.543 A 143.331 143.331 0 0 0 613.7 85.6 L 608.3 90.8 Q 603.7 86.8 599.75 82.8 A 40.858 40.858 0 0 1 595.67 78.01 A 33.282 33.282 0 0 1 593.45 74.5 Q 591.1 70.2 591.1 65.4 A 15.606 15.606 0 0 1 591.527 61.684 A 13.087 13.087 0 0 1 592.45 59.1 A 15.045 15.045 0 0 1 594.29 56.162 A 12.679 12.679 0 0 1 595.9 54.5 Q 597.8 52.8 600.2 51.75 A 18.542 18.542 0 0 1 602.659 50.887 Q 603.887 50.545 605.292 50.305 A 32.285 32.285 0 0 1 605.95 50.2 Q 608.829 49.771 612.557 49.71 A 76.714 76.714 0 0 1 613.8 49.7 L 626.6 49.7 L 626.6 34.5 L 586.6 34.5 L 586.6 27.4 L 645 27.4 L 645 34.5 Z M 888.7 34.5 L 878.4 34.5 L 878.4 89.6 L 870.3 89.6 L 870.3 56.8 L 859.4 56.8 Q 854.417 56.8 851.469 57.201 A 20.952 20.952 0 0 0 850.25 57.4 A 12.396 12.396 0 0 0 847.841 58.119 A 8.992 8.992 0 0 0 845.3 59.7 Q 844.1 60.7 843.5 62.2 Q 842.9 63.7 842.9 65.9 Q 842.9 69.2 844.55 72.25 A 22.131 22.131 0 0 0 846.374 75.056 Q 847.673 76.773 849.45 78.55 Q 852.243 81.343 856.107 84.543 A 143.331 143.331 0 0 0 857.4 85.6 L 852 90.8 Q 847.4 86.8 843.45 82.8 A 40.858 40.858 0 0 1 839.37 78.01 A 33.282 33.282 0 0 1 837.15 74.5 Q 834.8 70.2 834.8 65.4 A 15.606 15.606 0 0 1 835.227 61.684 A 13.087 13.087 0 0 1 836.15 59.1 A 15.045 15.045 0 0 1 837.99 56.162 A 12.679 12.679 0 0 1 839.6 54.5 Q 841.5 52.8 843.9 51.75 A 18.542 18.542 0 0 1 846.359 50.887 Q 847.587 50.545 848.992 50.305 A 32.285 32.285 0 0 1 849.65 50.2 Q 852.529 49.771 856.257 49.71 A 76.714 76.714 0 0 1 857.5 49.7 L 870.3 49.7 L 870.3 34.5 L 830.3 34.5 L 830.3 27.4 L 888.7 27.4 L 888.7 34.5 Z M 971.7 34.5 L 961.4 34.5 L 961.4 89.6 L 953.3 89.6 L 953.3 56.8 L 942.4 56.8 Q 937.417 56.8 934.469 57.201 A 20.952 20.952 0 0 0 933.25 57.4 A 12.396 12.396 0 0 0 930.841 58.119 A 8.992 8.992 0 0 0 928.3 59.7 Q 927.1 60.7 926.5 62.2 Q 925.9 63.7 925.9 65.9 Q 925.9 69.2 927.55 72.25 A 22.131 22.131 0 0 0 929.374 75.056 Q 930.673 76.773 932.45 78.55 Q 935.243 81.343 939.107 84.543 A 143.331 143.331 0 0 0 940.4 85.6 L 935 90.8 Q 930.4 86.8 926.45 82.8 A 40.858 40.858 0 0 1 922.37 78.01 A 33.282 33.282 0 0 1 920.15 74.5 Q 917.8 70.2 917.8 65.4 A 15.606 15.606 0 0 1 918.227 61.684 A 13.087 13.087 0 0 1 919.15 59.1 A 15.045 15.045 0 0 1 920.99 56.162 A 12.679 12.679 0 0 1 922.6 54.5 Q 924.5 52.8 926.9 51.75 A 18.542 18.542 0 0 1 929.359 50.887 Q 930.587 50.545 931.992 50.305 A 32.285 32.285 0 0 1 932.65 50.2 Q 935.529 49.771 939.257 49.71 A 76.714 76.714 0 0 1 940.5 49.7 L 953.3 49.7 L 953.3 34.5 L 913.3 34.5 L 913.3 27.4 L 971.7 27.4 L 971.7 34.5 Z M 204.1 34.5 L 153.3 34.5 L 153.3 27.4 L 222.6 27.4 L 222.6 34.5 L 212.2 34.5 L 212.2 89.6 L 204.1 89.6 L 204.1 51.9 L 208.5 55.5 A 12.485 12.485 0 0 0 207.185 54.823 Q 206.222 54.401 205.35 54.25 Q 203.9 54 202.7 54 A 10.485 10.485 0 0 0 199.43 54.542 A 13.356 13.356 0 0 0 197.8 55.2 A 10.027 10.027 0 0 0 195.651 56.624 Q 194.76 57.382 193.897 58.405 A 20.811 20.811 0 0 0 193 59.55 Q 190.7 62.7 188.9 68.8 L 181.2 66.4 A 36.771 36.771 0 0 1 183.532 59.915 Q 185.275 56.262 187.732 53.608 A 21.118 21.118 0 0 1 189.45 51.95 A 20.33 20.33 0 0 1 202.951 47.002 A 25.692 25.692 0 0 1 203.2 47 Q 204.9 47 206.6 47.3 A 27.43 27.43 0 0 1 207.805 47.539 Q 208.396 47.671 208.91 47.818 A 14.277 14.277 0 0 1 209.5 48 L 209.8 50.2 L 204.1 48.3 L 204.1 34.5 Z M 297.9 34.5 L 247.1 34.5 L 247.1 27.4 L 316.4 27.4 L 316.4 34.5 L 306 34.5 L 306 89.6 L 297.9 89.6 L 297.9 51.9 L 302.3 55.5 A 12.485 12.485 0 0 0 300.985 54.823 Q 300.022 54.401 299.15 54.25 Q 297.7 54 296.5 54 A 10.485 10.485 0 0 0 293.23 54.542 A 13.356 13.356 0 0 0 291.6 55.2 A 10.027 10.027 0 0 0 289.451 56.624 Q 288.56 57.382 287.697 58.405 A 20.811 20.811 0 0 0 286.8 59.55 Q 284.5 62.7 282.7 68.8 L 275 66.4 A 36.771 36.771 0 0 1 277.332 59.915 Q 279.075 56.262 281.532 53.608 A 21.118 21.118 0 0 1 283.25 51.95 A 20.33 20.33 0 0 1 296.751 47.002 A 25.692 25.692 0 0 1 297 47 Q 298.7 47 300.4 47.3 A 27.43 27.43 0 0 1 301.605 47.539 Q 302.196 47.671 302.71 47.818 A 14.277 14.277 0 0 1 303.3 48 L 303.6 50.2 L 297.9 48.3 L 297.9 34.5 Z M 1160.1 34.5 L 1160.1 27.4 L 1217 27.4 L 1217 34.5 L 1206.7 34.5 L 1206.7 89.6 L 1198.6 89.6 L 1198.6 59.8 L 1180.5 59.8 L 1180.5 65.2 Q 1180.5 67.073 1179.874 68.319 A 4.15 4.15 0 0 1 1179.1 69.4 A 4.702 4.702 0 0 1 1176.43 70.723 A 6.626 6.626 0 0 1 1175.4 70.8 Q 1173.798 70.8 1171.997 69.849 A 11.725 11.725 0 0 1 1171.55 69.6 A 14.689 14.689 0 0 1 1168.758 67.462 A 17.639 17.639 0 0 1 1167.75 66.4 A 19.513 19.513 0 0 1 1165.112 62.57 A 18.15 18.15 0 0 1 1164.9 62.15 A 11.538 11.538 0 0 1 1164.11 60.074 A 8.756 8.756 0 0 1 1163.8 57.8 A 6.362 6.362 0 0 1 1163.998 56.171 A 4.635 4.635 0 0 1 1165.15 54.1 Q 1166.401 52.803 1169.413 52.708 A 15.449 15.449 0 0 1 1169.9 52.7 L 1198.6 52.7 L 1198.6 34.5 L 1160.1 34.5 Z M 716.7 63.6 L 717.9 65 Q 721.4 67.7 724.85 71.15 Q 728.3 74.6 731.4 78.25 A 108.913 108.913 0 0 1 734.918 82.606 A 88.162 88.162 0 0 1 736.9 85.3 L 730.5 89.7 A 174.915 174.915 0 0 0 726.454 84.15 Q 722.733 79.264 719.55 75.95 A 86.852 86.852 0 0 0 715.484 71.971 Q 712.852 69.568 710.4 67.8 L 709.2 62.9 A 18.919 18.919 0 0 0 714.981 61.908 A 17.107 17.107 0 0 0 717.7 60.7 Q 721.5 58.6 723.75 54.65 A 16.852 16.852 0 0 0 725.684 49.146 A 22.454 22.454 0 0 0 726 45.3 A 17.278 17.278 0 0 0 725.619 41.566 Q 724.94 38.496 723.05 36.35 Q 720.1 33 715.4 33 A 11.308 11.308 0 0 0 713.711 33.118 Q 712.846 33.249 712.154 33.526 A 4.509 4.509 0 0 0 710.8 34.35 A 4.45 4.45 0 0 0 709.353 37.171 A 6.308 6.308 0 0 0 709.3 38 A 6.266 6.266 0 0 0 709.57 39.79 A 7.614 7.614 0 0 0 709.8 40.45 A 5.107 5.107 0 0 0 710.484 41.638 Q 710.851 42.122 711.356 42.59 A 9.486 9.486 0 0 0 711.65 42.85 A 6.98 6.98 0 0 0 712.838 43.653 Q 713.989 44.28 715.65 44.75 A 18.63 18.63 0 0 0 717.755 45.205 Q 718.782 45.371 719.968 45.47 A 42.922 42.922 0 0 0 722.5 45.6 L 720.8 52.6 A 37.003 37.003 0 0 1 715.513 51.905 Q 709.983 50.736 706.75 47.85 A 14.595 14.595 0 0 1 703.654 44.055 A 12.475 12.475 0 0 1 702.1 37.9 A 11.907 11.907 0 0 1 702.779 33.802 A 10.377 10.377 0 0 1 705.65 29.6 A 11.453 11.453 0 0 1 709.908 27.226 Q 711.648 26.671 713.755 26.489 A 24.953 24.953 0 0 1 715.9 26.4 Q 720.6 26.4 724.7 28.55 A 16.617 16.617 0 0 1 730.984 34.363 A 19.968 19.968 0 0 1 731.35 34.95 Q 733.9 39.2 733.9 45.6 Q 733.9 52.3 730.65 58.05 Q 727.4 63.8 721.5 67.25 A 25.024 25.024 0 0 1 712.442 70.363 A 32.33 32.33 0 0 1 707.7 70.7 A 11.554 11.554 0 0 1 704.975 70.395 A 8.533 8.533 0 0 1 701.85 68.95 A 5.589 5.589 0 0 1 699.539 64.877 A 7.541 7.541 0 0 1 699.5 64.1 A 7.446 7.446 0 0 1 699.694 62.348 A 4.816 4.816 0 0 1 701.3 59.7 A 6.348 6.348 0 0 1 704.228 58.351 A 8.9 8.9 0 0 1 705.9 58.2 Q 708 58.2 710.3 59.25 A 14.695 14.695 0 0 1 711.725 60.012 Q 713.114 60.844 714.945 62.228 A 73.63 73.63 0 0 1 716.7 63.6 Z M 831.8 34.5 L 817.8 34.5 L 820.6 33 A 9.383 9.383 0 0 1 821.419 34.482 Q 821.964 35.697 822.35 37.3 Q 822.883 39.513 822.979 42.463 A 41.047 41.047 0 0 1 823 43.8 A 22.697 22.697 0 0 1 822.62 48.062 Q 822.118 50.692 820.949 52.816 A 14.098 14.098 0 0 1 820.7 53.25 A 20.377 20.377 0 0 1 815.255 59.196 A 23.849 23.849 0 0 1 814.4 59.8 A 43.685 43.685 0 0 1 808.676 63.043 A 53.06 53.06 0 0 1 805.3 64.5 L 805.7 63.7 A 119.451 119.451 0 0 0 809.689 68.116 A 147.246 147.246 0 0 0 812.45 70.95 Q 816.2 74.7 820.4 78.35 Q 824.6 82 828.9 85.4 L 823.5 90.8 Q 817.6 85.9 812.4 80.9 Q 807.2 75.9 803.2 71.5 Q 800.512 68.544 798.592 66.175 A 64.828 64.828 0 0 1 796.9 64 Q 794.7 60.9 794.05 59.1 A 11.084 11.084 0 0 1 793.507 56.998 A 9.309 9.309 0 0 1 793.4 55.6 A 4.927 4.927 0 0 1 794.125 53.055 A 6.96 6.96 0 0 1 794.9 52 A 4.5 4.5 0 0 1 796.724 50.78 Q 797.468 50.499 798.396 50.383 A 11.301 11.301 0 0 1 799.8 50.3 A 9.423 9.423 0 0 1 802.757 50.745 A 7.826 7.826 0 0 1 806 52.8 A 18.067 18.067 0 0 1 808.004 55.332 Q 809.231 57.182 810.3 59.6 L 804.1 56.1 A 24.89 24.89 0 0 0 807.58 54.66 Q 810.673 53.075 812.4 50.85 A 12.355 12.355 0 0 0 814.933 44.271 A 15.902 15.902 0 0 0 815 42.8 Q 815 39.9 814.25 37.05 A 17.595 17.595 0 0 0 813.814 35.623 Q 813.199 33.9 812.4 33.1 L 816.9 34.5 L 789.4 34.5 L 789.4 27.4 L 831.8 27.4 L 831.8 34.5 Z M 41.7 34.5 L 24.5 34.5 L 27.3 33 Q 28.4 34.6 29.1 37.3 A 19.967 19.967 0 0 1 29.566 39.774 Q 29.727 41.032 29.777 42.463 A 38.118 38.118 0 0 1 29.8 43.8 Q 29.8 48.2 28.75 51.45 A 17.025 17.025 0 0 1 27.579 54.245 A 12.724 12.724 0 0 1 25.8 56.8 L 25.7 57.7 Q 23.9 60 21.45 61.7 A 25.226 25.226 0 0 1 17.592 63.886 A 29.902 29.902 0 0 1 15.9 64.6 L 16.3 63.7 Q 20.4 69 26.05 74.7 Q 31.7 80.4 38 85.4 L 32.6 90.8 A 202.709 202.709 0 0 1 22.36 81.213 A 186.487 186.487 0 0 1 22.05 80.9 Q 17.1 75.9 13.3 71.5 A 155.319 155.319 0 0 1 10.877 68.629 Q 8.744 66.035 7.3 64 Q 5.557 61.544 4.85 59.904 A 7.8 7.8 0 0 1 4.55 59.1 A 12.578 12.578 0 0 1 4.059 56.727 A 10.868 10.868 0 0 1 4 55.6 A 4.927 4.927 0 0 1 4.725 53.055 A 6.96 6.96 0 0 1 5.5 52 A 4.5 4.5 0 0 1 7.324 50.78 Q 8.068 50.499 8.996 50.383 A 11.301 11.301 0 0 1 10.4 50.3 Q 12.9 50.3 14.75 51.45 A 11.11 11.11 0 0 1 16.926 53.239 A 14.193 14.193 0 0 1 18.1 54.65 A 23.035 23.035 0 0 1 19.55 56.913 Q 20.206 58.073 20.819 59.42 A 37.721 37.721 0 0 1 20.9 59.6 L 14.8 56.5 A 9.168 9.168 0 0 0 16.914 55.617 A 6.895 6.895 0 0 0 19.05 53.7 A 12.17 12.17 0 0 0 20.833 50.061 A 14.494 14.494 0 0 0 21.1 49.05 Q 21.7 46.4 21.7 43.8 A 34.761 34.761 0 0 0 21.584 40.886 Q 21.463 39.447 21.214 38.198 A 18.515 18.515 0 0 0 21 37.25 A 23.709 23.709 0 0 0 20.59 35.818 Q 20.138 34.416 19.613 33.533 A 5.708 5.708 0 0 0 19.4 33.2 L 23.7 34.5 L 0 34.5 L 0 27.4 L 41.7 27.4 L 41.7 34.5 Z M 534.7 34.5 L 517.5 34.5 L 520.3 33 Q 521.4 34.6 522.1 37.3 A 19.967 19.967 0 0 1 522.566 39.774 Q 522.727 41.032 522.777 42.463 A 38.118 38.118 0 0 1 522.8 43.8 Q 522.8 48.2 521.75 51.45 A 17.025 17.025 0 0 1 520.579 54.245 A 12.724 12.724 0 0 1 518.8 56.8 L 518.7 57.7 Q 516.9 60 514.45 61.7 A 25.226 25.226 0 0 1 510.592 63.886 A 29.902 29.902 0 0 1 508.9 64.6 L 509.3 63.7 Q 513.4 69 519.05 74.7 Q 524.7 80.4 531 85.4 L 525.6 90.8 A 202.709 202.709 0 0 1 515.36 81.213 A 186.487 186.487 0 0 1 515.05 80.9 Q 510.1 75.9 506.3 71.5 A 155.319 155.319 0 0 1 503.877 68.629 Q 501.744 66.035 500.3 64 Q 498.557 61.544 497.85 59.904 A 7.8 7.8 0 0 1 497.55 59.1 A 12.578 12.578 0 0 1 497.059 56.727 A 10.868 10.868 0 0 1 497 55.6 A 4.927 4.927 0 0 1 497.725 53.055 A 6.96 6.96 0 0 1 498.5 52 A 4.5 4.5 0 0 1 500.324 50.78 Q 501.068 50.499 501.996 50.383 A 11.301 11.301 0 0 1 503.4 50.3 Q 505.9 50.3 507.75 51.45 A 11.11 11.11 0 0 1 509.926 53.239 A 14.193 14.193 0 0 1 511.1 54.65 A 23.035 23.035 0 0 1 512.55 56.913 Q 513.206 58.073 513.819 59.42 A 37.721 37.721 0 0 1 513.9 59.6 L 507.8 56.5 A 9.168 9.168 0 0 0 509.914 55.617 A 6.895 6.895 0 0 0 512.05 53.7 A 12.17 12.17 0 0 0 513.833 50.061 A 14.494 14.494 0 0 0 514.1 49.05 Q 514.7 46.4 514.7 43.8 A 34.761 34.761 0 0 0 514.584 40.886 Q 514.463 39.447 514.214 38.198 A 18.515 18.515 0 0 0 514 37.25 A 23.709 23.709 0 0 0 513.59 35.818 Q 513.138 34.416 512.613 33.533 A 5.708 5.708 0 0 0 512.4 33.2 L 516.7 34.5 L 493 34.5 L 493 27.4 L 534.7 27.4 L 534.7 34.5 Z M 1382.3 27.4 L 1441.8 27.4 L 1441.8 34.5 L 1431.4 34.5 L 1431.4 89.6 L 1423.3 89.6 L 1423.3 68 L 1424.9 70.5 Q 1423.1 71.9 1420.55 73.3 A 23.354 23.354 0 0 1 1417.089 74.836 A 29.121 29.121 0 0 1 1414.75 75.55 A 25.928 25.928 0 0 1 1410.462 76.278 A 32.601 32.601 0 0 1 1407.6 76.4 Q 1401.6 76.4 1397.1 73.65 A 19.989 19.989 0 0 1 1390.565 67.115 A 24.003 24.003 0 0 1 1389.85 65.9 A 31.726 31.726 0 0 1 1387.096 59.025 A 40.617 40.617 0 0 1 1386.1 54.3 A 38.39 38.39 0 0 0 1389.581 53.411 Q 1393.214 52.284 1395.3 50.65 A 7.635 7.635 0 0 0 1398.186 45.541 A 11.316 11.316 0 0 0 1398.3 43.9 Q 1398.3 40.4 1396.65 37.6 A 32.4 32.4 0 0 0 1395.223 35.379 Q 1394.27 34.027 1393.3 33 L 1398.2 34.5 L 1382.3 34.5 L 1382.3 27.4 Z M 128.8 34.5 L 118.5 34.5 L 118.5 89.6 L 110.4 89.6 L 110.4 64.6 L 88.3 64.6 L 88.3 68.3 Q 88.3 71.6 86.85 73.05 A 5.129 5.129 0 0 1 85.444 74.067 A 4.437 4.437 0 0 1 83.5 74.5 A 6.577 6.577 0 0 1 81.44 74.153 Q 80.641 73.89 79.809 73.428 A 11.849 11.849 0 0 1 79.5 73.25 A 17.065 17.065 0 0 1 76.286 70.757 A 19.62 19.62 0 0 1 75.6 70.05 A 19.589 19.589 0 0 1 73.025 66.582 A 17.963 17.963 0 0 1 72.65 65.9 A 11.627 11.627 0 0 1 71.927 64.227 Q 71.607 63.275 71.527 62.386 A 6.531 6.531 0 0 1 71.5 61.8 Q 71.5 60 72.85 58.75 A 3.745 3.745 0 0 1 74.02 58.039 Q 75.13 57.596 76.838 57.517 A 16.629 16.629 0 0 1 77.6 57.5 L 80.2 57.5 L 80.2 34.5 L 67.6 34.5 L 67.6 27.4 L 128.8 27.4 L 128.8 34.5 Z M 1327 34.5 L 1316.6 34.5 L 1316.6 89.6 L 1308.5 89.6 L 1308.5 66.9 L 1310.4 69.3 Q 1308.3 70.7 1305.9 72.05 Q 1303.5 73.4 1300.65 74.2 Q 1297.889 74.975 1294.33 75 A 33.86 33.86 0 0 1 1294.1 75 A 20.498 20.498 0 0 1 1289.837 74.573 A 16.932 16.932 0 0 1 1286.85 73.65 Q 1283.6 72.3 1281.5 70.2 Q 1279.8 68.4 1278.7 66.25 Q 1277.669 64.235 1277.165 61.472 A 24.719 24.719 0 0 1 1277.1 61.1 A 32.471 32.471 0 0 1 1276.795 58.668 Q 1276.6 56.488 1276.6 53.8 L 1276.6 34.5 L 1268.7 34.5 L 1268.7 27.4 L 1327 27.4 L 1327 34.5 Z M 1383.8 34.5 L 1373.4 34.5 L 1373.4 89.6 L 1365.3 89.6 L 1365.3 66.9 L 1367.2 69.3 Q 1365.1 70.7 1362.7 72.05 Q 1360.3 73.4 1357.45 74.2 Q 1354.689 74.975 1351.13 75 A 33.86 33.86 0 0 1 1350.9 75 A 20.498 20.498 0 0 1 1346.637 74.573 A 16.932 16.932 0 0 1 1343.65 73.65 Q 1340.4 72.3 1338.3 70.2 Q 1336.6 68.4 1335.5 66.25 Q 1334.469 64.235 1333.965 61.472 A 24.719 24.719 0 0 1 1333.9 61.1 A 32.471 32.471 0 0 1 1333.595 58.668 Q 1333.4 56.488 1333.4 53.8 L 1333.4 34.5 L 1325.5 34.5 L 1325.5 27.4 L 1383.8 27.4 L 1383.8 34.5 Z M 1235.3 62.2 L 1229.3 66.7 A 17.871 17.871 0 0 1 1226.616 64.299 A 23.994 23.994 0 0 1 1224.65 61.85 A 11.613 11.613 0 0 1 1222.715 57.05 A 15.686 15.686 0 0 1 1222.5 54.4 A 13.151 13.151 0 0 1 1222.678 52.18 Q 1222.899 50.89 1223.395 49.82 A 8.067 8.067 0 0 1 1223.5 49.6 Q 1224.5 47.6 1226.2 46.3 Q 1227.7 45.1 1229.5 44.4 A 15.919 15.919 0 0 1 1231.796 43.71 A 20.356 20.356 0 0 1 1233.55 43.4 Q 1235.8 43.1 1238.5 43.1 L 1251.7 43.1 L 1251.7 34.5 L 1215.6 34.5 L 1215.6 27.4 L 1270.2 27.4 L 1270.2 34.5 L 1259.8 34.5 L 1259.8 50.2 L 1238.6 50.2 A 51.042 51.042 0 0 0 1237.163 50.219 Q 1235.858 50.256 1234.99 50.366 A 8.037 8.037 0 0 0 1234.2 50.5 Q 1232.9 50.8 1232 51.5 Q 1231.3 52.1 1230.9 52.95 A 4.157 4.157 0 0 0 1230.552 54.142 A 5.381 5.381 0 0 0 1230.5 54.9 Q 1230.5 57.3 1231.95 59.1 Q 1233.4 60.9 1235.3 62.2 Z M 1250.4 89.4 L 1247.7 82.7 Q 1251.3 81.6 1253.6 79.8 A 5.843 5.843 0 0 0 1255.87 75.507 A 8.283 8.283 0 0 0 1255.9 74.8 A 7.963 7.963 0 0 0 1255.44 72.034 A 6.872 6.872 0 0 0 1253 68.85 A 8.779 8.779 0 0 0 1250.613 67.637 Q 1247.891 66.7 1243.6 66.7 Q 1239.074 66.7 1235.946 67.927 A 11.48 11.48 0 0 0 1233.05 69.55 A 9.072 9.072 0 0 0 1229.445 76.156 A 11.825 11.825 0 0 0 1229.4 77.2 Q 1229.4 79.5 1230 81.65 Q 1230.6 83.8 1232.3 86.2 A 24.244 24.244 0 0 0 1233.757 88.044 Q 1235.193 89.702 1237.25 91.6 A 69.059 69.059 0 0 0 1239.913 93.925 Q 1241.18 94.979 1242.651 96.123 A 150.221 150.221 0 0 0 1245.8 98.5 L 1240.4 103.8 Q 1234.943 99.507 1230.967 95.653 A 82.165 82.165 0 0 1 1230.05 94.75 A 39.783 39.783 0 0 1 1226.516 90.733 A 29.298 29.298 0 0 1 1223.6 86.1 Q 1221.4 81.7 1221.4 76.6 A 15.935 15.935 0 0 1 1222.062 71.914 A 13.059 13.059 0 0 1 1224.65 67.2 A 19.33 19.33 0 0 1 1231.411 62.175 A 23.527 23.527 0 0 1 1233.05 61.5 A 31.287 31.287 0 0 1 1243.638 59.602 A 35.224 35.224 0 0 1 1244 59.6 A 37.408 37.408 0 0 1 1248.442 59.849 Q 1252.395 60.322 1255.25 61.7 A 18.205 18.205 0 0 1 1258.458 63.654 A 12.948 12.948 0 0 1 1261.65 67.15 Q 1263.7 70.5 1263.7 74.3 A 16.266 16.266 0 0 1 1263.095 78.838 A 12.85 12.85 0 0 1 1260.3 83.9 A 15.969 15.969 0 0 1 1255.989 87.25 Q 1254.092 88.284 1251.748 89.015 A 30.241 30.241 0 0 1 1250.4 89.4 Z M 197.8 28.1 L 189.4 28.1 Q 184.3 21.1 178.85 16.5 A 45.536 45.536 0 0 0 172.299 11.857 A 37.498 37.498 0 0 0 167.6 9.55 Q 161.8 7.2 155.7 7.2 A 26.824 26.824 0 0 0 151.435 7.518 Q 149.167 7.884 147.336 8.671 A 12.642 12.642 0 0 0 144.75 10.15 A 9.358 9.358 0 0 0 140.863 16.95 A 12.2 12.2 0 0 0 140.8 18.2 A 15.92 15.92 0 0 0 141.02 20.916 Q 141.294 22.499 141.91 23.816 A 9.969 9.969 0 0 0 141.95 23.9 A 31.098 31.098 0 0 0 143.214 26.281 A 23.677 23.677 0 0 0 144.4 28.1 L 135.8 28.1 Q 134.5 25.7 133.6 23.05 A 16.885 16.885 0 0 1 132.806 19.335 A 20.885 20.885 0 0 1 132.7 17.2 A 17.174 17.174 0 0 1 133.394 12.232 A 14.538 14.538 0 0 1 135.35 8.15 A 16.667 16.667 0 0 1 140.668 3.252 A 21.001 21.001 0 0 1 142.8 2.15 A 23.91 23.91 0 0 1 148.706 0.412 A 32.512 32.512 0 0 1 154 0 A 45.793 45.793 0 0 1 163.741 1.008 A 40.516 40.516 0 0 1 167.3 1.95 Q 173.5 3.9 178.95 7.6 Q 184.4 11.3 189.1 16.5 A 80.963 80.963 0 0 1 196.661 26.324 A 91.004 91.004 0 0 1 197.8 28.1 Z M 385.3 28.1 L 376.9 28.1 Q 371.8 21.1 366.35 16.5 A 45.536 45.536 0 0 0 359.799 11.857 A 37.498 37.498 0 0 0 355.1 9.55 Q 349.3 7.2 343.2 7.2 A 26.824 26.824 0 0 0 338.935 7.518 Q 336.667 7.884 334.836 8.671 A 12.642 12.642 0 0 0 332.25 10.15 A 9.358 9.358 0 0 0 328.363 16.95 A 12.2 12.2 0 0 0 328.3 18.2 A 15.92 15.92 0 0 0 328.52 20.916 Q 328.794 22.499 329.41 23.816 A 9.969 9.969 0 0 0 329.45 23.9 A 31.098 31.098 0 0 0 330.714 26.281 A 23.677 23.677 0 0 0 331.9 28.1 L 323.3 28.1 Q 322 25.7 321.1 23.05 A 16.885 16.885 0 0 1 320.306 19.335 A 20.885 20.885 0 0 1 320.2 17.2 A 17.174 17.174 0 0 1 320.894 12.232 A 14.538 14.538 0 0 1 322.85 8.15 A 16.667 16.667 0 0 1 328.168 3.252 A 21.001 21.001 0 0 1 330.3 2.15 A 23.91 23.91 0 0 1 336.206 0.412 A 32.512 32.512 0 0 1 341.5 0 A 45.793 45.793 0 0 1 351.241 1.008 A 40.516 40.516 0 0 1 354.8 1.95 Q 361 3.9 366.45 7.6 Q 371.9 11.3 376.6 16.5 A 80.963 80.963 0 0 1 384.161 26.324 A 91.004 91.004 0 0 1 385.3 28.1 Z M 1135.1 57.4 L 1144 55.1 A 50.79 50.79 0 0 1 1147.994 58.738 A 58.476 58.476 0 0 1 1149.3 60.1 Q 1151.9 62.9 1153.55 66.4 A 17.144 17.144 0 0 1 1155.005 71.425 A 21.998 21.998 0 0 1 1155.2 74.4 A 18.397 18.397 0 0 1 1154.814 78.267 A 13.122 13.122 0 0 1 1152.95 82.8 Q 1150.7 86.2 1146.8 87.9 A 20.45 20.45 0 0 1 1140.729 89.466 A 25.13 25.13 0 0 1 1138.1 89.6 Q 1132.4 89.6 1127.25 86.55 Q 1122.1 83.5 1117.35 76.6 A 62.277 62.277 0 0 1 1113.837 70.793 Q 1112.123 67.606 1110.457 63.799 A 134.781 134.781 0 0 1 1108.2 58.3 L 1115.3 55.8 Q 1118.1 63.6 1121.45 69.55 A 43.466 43.466 0 0 0 1124.271 73.956 Q 1125.871 76.135 1127.591 77.799 A 23.884 23.884 0 0 0 1128.75 78.85 A 14.897 14.897 0 0 0 1132.397 81.17 A 12.087 12.087 0 0 0 1137.3 82.2 Q 1140.004 82.2 1142.056 81.454 A 10.221 10.221 0 0 0 1142.2 81.4 Q 1144.3 80.6 1145.5 78.7 A 7.027 7.027 0 0 0 1146.32 76.789 Q 1146.7 75.4 1146.7 73.6 Q 1146.7 68.8 1143.65 64.85 Q 1140.929 61.327 1136.258 58.161 A 47.924 47.924 0 0 0 1135.1 57.4 Z M 69.1 34.5 L 58.7 34.5 L 58.7 89.6 L 50.6 89.6 L 50.6 34.5 L 39.6 34.5 L 39.6 27.4 L 69.1 27.4 L 69.1 34.5 Z M 562.1 34.5 L 551.7 34.5 L 551.7 89.6 L 543.6 89.6 L 543.6 34.5 L 532.6 34.5 L 532.6 27.4 L 562.1 27.4 L 562.1 34.5 Z M 765 34.5 L 754.6 34.5 L 754.6 89.6 L 746.5 89.6 L 746.5 34.5 L 737.6 34.5 L 737.6 27.4 L 765 27.4 L 765 34.5 Z M 136.3 89.6 L 136.3 34.5 L 127.4 34.5 L 127.4 27.4 L 154.7 27.4 L 154.7 34.5 L 144.4 34.5 L 144.4 89.6 L 136.3 89.6 Z M 323.8 89.6 L 323.8 34.5 L 314.9 34.5 L 314.9 27.4 L 342.2 27.4 L 342.2 34.5 L 331.9 34.5 L 331.9 89.6 L 323.8 89.6 Z M 670.9 34.5 L 660.6 34.5 L 660.6 89.6 L 652.5 89.6 L 652.5 34.5 L 643.6 34.5 L 643.6 27.4 L 670.9 27.4 L 670.9 34.5 Z M 790.8 34.5 L 780.5 34.5 L 780.5 89.6 L 772.4 89.6 L 772.4 34.5 L 763.5 34.5 L 763.5 27.4 L 790.8 27.4 L 790.8 34.5 Z M 997.6 34.5 L 987.3 34.5 L 987.3 89.6 L 979.2 89.6 L 979.2 34.5 L 970.3 34.5 L 970.3 27.4 L 997.6 27.4 L 997.6 34.5 Z M 190.2 53.9 L 187 60.4 A 51.458 51.458 0 0 0 183.607 57.778 A 40.138 40.138 0 0 0 180.95 56.05 A 12.562 12.562 0 0 0 175.595 54.362 A 15.538 15.538 0 0 0 174.2 54.3 Q 170.919 54.3 168.883 55.848 A 6.627 6.627 0 0 0 168.05 56.6 A 7.875 7.875 0 0 0 166.003 60.988 A 10.767 10.767 0 0 0 165.9 62.5 A 13.37 13.37 0 0 0 167.758 69.263 A 16.097 16.097 0 0 0 168.05 69.75 A 27.025 27.025 0 0 0 170.211 72.715 Q 171.93 74.782 174.3 76.95 Q 178.4 80.7 184.2 85.6 L 178.8 90.8 Q 173 85.8 168.2 81.25 A 51.809 51.809 0 0 1 163.959 76.747 A 38.407 38.407 0 0 1 160.6 72.05 Q 157.8 67.4 157.8 62.1 Q 157.8 58.317 159.097 55.563 A 11.385 11.385 0 0 1 159.25 55.25 A 14.263 14.263 0 0 1 161.931 51.538 A 13.252 13.252 0 0 1 163.05 50.55 Q 165.4 48.7 168.2 47.85 Q 171 47 173.7 47 A 23.867 23.867 0 0 1 177.536 47.297 A 19.828 19.828 0 0 1 179.8 47.8 Q 182.6 48.6 185.2 50.15 A 30.134 30.134 0 0 1 189.559 53.327 A 33.908 33.908 0 0 1 190.2 53.9 Z M 284 53.9 L 280.8 60.4 A 51.458 51.458 0 0 0 277.407 57.778 A 40.138 40.138 0 0 0 274.75 56.05 A 12.562 12.562 0 0 0 269.395 54.362 A 15.538 15.538 0 0 0 268 54.3 Q 264.719 54.3 262.683 55.848 A 6.627 6.627 0 0 0 261.85 56.6 A 7.875 7.875 0 0 0 259.803 60.988 A 10.767 10.767 0 0 0 259.7 62.5 A 13.37 13.37 0 0 0 261.558 69.263 A 16.097 16.097 0 0 0 261.85 69.75 A 27.025 27.025 0 0 0 264.011 72.715 Q 265.73 74.782 268.1 76.95 Q 272.2 80.7 278 85.6 L 272.6 90.8 Q 266.8 85.8 262 81.25 A 51.809 51.809 0 0 1 257.759 76.747 A 38.407 38.407 0 0 1 254.4 72.05 Q 251.6 67.4 251.6 62.1 Q 251.6 58.317 252.897 55.563 A 11.385 11.385 0 0 1 253.05 55.25 A 14.263 14.263 0 0 1 255.731 51.538 A 13.252 13.252 0 0 1 256.85 50.55 Q 259.2 48.7 262 47.85 Q 264.8 47 267.5 47 A 23.867 23.867 0 0 1 271.336 47.297 A 19.828 19.828 0 0 1 273.6 47.8 Q 276.4 48.6 279 50.15 A 30.134 30.134 0 0 1 283.359 53.327 A 33.908 33.908 0 0 1 284 53.9 Z M 1423.3 34.5 L 1399.8 34.5 L 1402.1 32.4 Q 1404.1 35.2 1405.2 38.55 A 21.953 21.953 0 0 1 1406.187 43.035 A 19.139 19.139 0 0 1 1406.3 45.1 Q 1406.3 50.3 1403.55 54 A 13.772 13.772 0 0 1 1399.571 57.551 Q 1397.9 58.565 1395.807 59.297 A 25.055 25.055 0 0 1 1395.2 59.5 A 24.271 24.271 0 0 0 1396.829 62.8 Q 1397.839 64.486 1399.036 65.735 A 12.705 12.705 0 0 0 1400.25 66.85 Q 1403.224 69.239 1407.957 69.299 A 19.327 19.327 0 0 0 1408.2 69.3 A 19.762 19.762 0 0 0 1413.183 68.699 A 15.636 15.636 0 0 0 1418 66.55 A 32.234 32.234 0 0 0 1422.375 63.056 A 26.637 26.637 0 0 0 1424.8 60.4 L 1423.3 65.7 L 1423.3 34.5 Z M 1105.3 34.5 L 1105.3 27.4 L 1161.6 27.4 L 1161.6 34.5 L 1105.3 34.5 Z M 1308.5 65 L 1308.5 34.5 L 1284.7 34.5 L 1284.7 52.7 Q 1284.7 56.8 1285 59.2 Q 1285.3 61.6 1285.95 63.05 Q 1286.6 64.5 1287.7 65.6 A 6.845 6.845 0 0 0 1289.994 67.1 A 8.377 8.377 0 0 0 1290.7 67.35 Q 1292.247 67.823 1294.311 67.89 A 21.419 21.419 0 0 0 1295 67.9 Q 1298.1 67.9 1300.95 66.7 Q 1303.8 65.5 1306.15 63.65 A 26.783 26.783 0 0 0 1308.556 61.522 A 21.215 21.215 0 0 0 1310.1 59.8 L 1308.5 65 Z M 1365.3 65 L 1365.3 34.5 L 1341.5 34.5 L 1341.5 52.7 Q 1341.5 56.8 1341.8 59.2 Q 1342.1 61.6 1342.75 63.05 Q 1343.4 64.5 1344.5 65.6 A 6.845 6.845 0 0 0 1346.794 67.1 A 8.377 8.377 0 0 0 1347.5 67.35 Q 1349.047 67.823 1351.111 67.89 A 21.419 21.419 0 0 0 1351.8 67.9 Q 1354.9 67.9 1357.75 66.7 Q 1360.6 65.5 1362.95 63.65 A 26.783 26.783 0 0 0 1365.356 61.522 A 21.215 21.215 0 0 0 1366.9 59.8 L 1365.3 65 Z M 378.7 34.5 L 356.8 34.5 L 356.8 53.6 Q 356.8 59.1 357.4 61.5 Q 358 63.9 359.6 65.6 Q 360.7 66.8 362.2 67.35 Q 363.7 67.9 365.6 67.9 Q 368.9 67.9 371.5 66.85 Q 374.1 65.8 376.35 63.95 Q 378.6 62.1 380.5 59.9 L 378.7 65.3 L 378.7 34.5 Z M 1137.4 33.3 L 1136.6 28 A 25.517 25.517 0 0 1 1141.096 28.746 A 21.47 21.47 0 0 1 1143.55 29.55 A 19.081 19.081 0 0 1 1147.399 31.591 A 16.705 16.705 0 0 1 1149 32.85 Q 1151.3 34.9 1152.55 37.55 Q 1153.8 40.2 1153.8 43.2 A 15.819 15.819 0 0 1 1152.537 49.605 A 15.188 15.188 0 0 1 1148.05 55.35 Q 1143.479 59.047 1135.844 59.931 A 43.112 43.112 0 0 1 1131.7 60.2 L 1131.2 53.2 Q 1137.897 53.019 1141.441 51.037 A 9.875 9.875 0 0 0 1142.15 50.6 Q 1145.7 48.2 1145.7 43.3 Q 1145.7 39.4 1143.3 36.8 Q 1140.9 34.2 1137.4 33.3 Z M 211.7 28.1 L 204.2 28.1 A 135.64 135.64 0 0 0 202.892 23.49 Q 201.459 18.779 200.05 15.65 Q 198 11.1 195.5 9.2 Q 193 7.3 189.6 7.3 Q 187.473 7.3 185.813 7.721 A 11.104 11.104 0 0 0 185.7 7.75 Q 184 8.2 182.6 8.7 L 180.2 1.4 A 19.643 19.643 0 0 1 184.137 0.34 A 18.241 18.241 0 0 1 184.4 0.3 A 27.657 27.657 0 0 1 186.371 0.095 Q 187.725 0 189.3 0 Q 193.4 0 196.6 1.4 Q 199.8 2.8 202.4 6 Q 205 9.2 207.3 14.65 Q 209.061 18.823 210.705 24.49 A 146.562 146.562 0 0 1 211.7 28.1 Z M 408.5 28.1 L 401 28.1 A 135.64 135.64 0 0 0 399.692 23.49 Q 398.259 18.779 396.85 15.65 Q 394.8 11.1 392.3 9.2 Q 389.8 7.3 386.4 7.3 Q 384.273 7.3 382.613 7.721 A 11.104 11.104 0 0 0 382.5 7.75 Q 380.8 8.2 379.4 8.7 L 377 1.4 A 19.643 19.643 0 0 1 380.937 0.34 A 18.241 18.241 0 0 1 381.2 0.3 A 27.657 27.657 0 0 1 383.171 0.095 Q 384.525 0 386.1 0 Q 390.2 0 393.4 1.4 Q 396.6 2.8 399.2 6 Q 401.8 9.2 404.1 14.65 Q 405.861 18.823 407.505 24.49 A 146.562 146.562 0 0 1 408.5 28.1 Z M 1069.9 28.1 L 1062.4 28.1 A 135.64 135.64 0 0 0 1061.092 23.49 Q 1059.659 18.779 1058.25 15.65 Q 1056.2 11.1 1053.7 9.2 Q 1051.2 7.3 1047.8 7.3 Q 1045.673 7.3 1044.013 7.721 A 11.104 11.104 0 0 0 1043.9 7.75 Q 1042.2 8.2 1040.8 8.7 L 1038.4 1.4 A 19.643 19.643 0 0 1 1042.337 0.34 A 18.241 18.241 0 0 1 1042.6 0.3 A 27.657 27.657 0 0 1 1044.571 0.095 Q 1045.925 0 1047.5 0 Q 1051.6 0 1054.8 1.4 Q 1058 2.8 1060.6 6 Q 1063.2 9.2 1065.5 14.65 Q 1067.261 18.823 1068.905 24.49 A 146.562 146.562 0 0 1 1069.9 28.1 Z M 660.1 28.1 L 652.6 28.1 A 135.64 135.64 0 0 0 651.292 23.49 Q 649.859 18.779 648.45 15.65 Q 646.4 11.1 643.9 9.2 Q 641.4 7.3 638 7.3 Q 635.873 7.3 634.213 7.721 A 11.104 11.104 0 0 0 634.1 7.75 Q 632.4 8.2 631 8.7 L 628.6 1.4 A 19.643 19.643 0 0 1 632.537 0.34 A 18.241 18.241 0 0 1 632.8 0.3 A 27.657 27.657 0 0 1 634.771 0.095 Q 636.125 0 637.7 0 Q 641.8 0 645 1.4 Q 648.2 2.8 650.8 6 Q 653.4 9.2 655.7 14.65 Q 657.461 18.823 659.105 24.49 A 146.562 146.562 0 0 1 660.1 28.1 Z M 780 28.1 L 772.5 28.1 A 135.64 135.64 0 0 0 771.192 23.49 Q 769.759 18.779 768.35 15.65 Q 766.3 11.1 763.8 9.2 Q 761.3 7.3 757.9 7.3 Q 755.773 7.3 754.113 7.721 A 11.104 11.104 0 0 0 754 7.75 Q 752.3 8.2 750.9 8.7 L 748.5 1.4 A 19.643 19.643 0 0 1 752.437 0.34 A 18.241 18.241 0 0 1 752.7 0.3 A 27.657 27.657 0 0 1 754.671 0.095 Q 756.025 0 757.6 0 Q 761.7 0 764.9 1.4 Q 768.1 2.8 770.7 6 Q 773.3 9.2 775.6 14.65 Q 777.361 18.823 779.005 24.49 A 146.562 146.562 0 0 1 780 28.1 Z M 986.8 28.1 L 979.3 28.1 A 135.64 135.64 0 0 0 977.992 23.49 Q 976.559 18.779 975.15 15.65 Q 973.1 11.1 970.6 9.2 Q 968.1 7.3 964.7 7.3 Q 962.573 7.3 960.913 7.721 A 11.104 11.104 0 0 0 960.8 7.75 Q 959.1 8.2 957.7 8.7 L 955.3 1.4 A 19.643 19.643 0 0 1 959.237 0.34 A 18.241 18.241 0 0 1 959.5 0.3 A 27.657 27.657 0 0 1 961.471 0.095 Q 962.825 0 964.4 0 Q 968.5 0 971.7 1.4 Q 974.9 2.8 977.5 6 Q 980.1 9.2 982.4 14.65 Q 984.161 18.823 985.805 24.49 A 146.562 146.562 0 0 1 986.8 28.1 Z M 110.4 57.5 L 110.4 34.5 L 88.3 34.5 L 88.3 57.5 L 110.4 57.5 Z M 50.9 101.4 L 49.7 94 Q 50.8 93.8 52 93.65 A 19.846 19.846 0 0 1 54.136 93.503 A 22.171 22.171 0 0 1 54.5 93.5 A 30.58 30.58 0 0 1 60.444 94.051 A 22.904 22.904 0 0 1 66.35 96.05 Q 71.4 98.6 75.35 102.9 Q 79.3 107.2 82.7 112.3 L 77 116.4 A 64.782 64.782 0 0 0 74.103 112.117 Q 72.585 110.065 71.056 108.399 A 36.432 36.432 0 0 0 70.35 107.65 Q 67 104.2 63.3 102.55 A 19.174 19.174 0 0 0 57.098 100.985 A 23.163 23.163 0 0 0 55.1 100.9 A 17.08 17.08 0 0 0 53.659 100.959 A 14.193 14.193 0 0 0 52.85 101.05 Q 51.8 101.2 50.9 101.4 Z M 813.6 101.4 L 812.4 94 Q 813.5 93.8 814.7 93.65 A 19.846 19.846 0 0 1 816.836 93.503 A 22.171 22.171 0 0 1 817.2 93.5 A 30.58 30.58 0 0 1 823.144 94.051 A 22.904 22.904 0 0 1 829.05 96.05 Q 834.1 98.6 838.05 102.9 Q 842 107.2 845.4 112.3 L 839.7 116.4 A 64.782 64.782 0 0 0 836.803 112.117 Q 835.285 110.065 833.756 108.399 A 36.432 36.432 0 0 0 833.05 107.65 Q 829.7 104.2 826 102.55 A 19.174 19.174 0 0 0 819.798 100.985 A 23.163 23.163 0 0 0 817.8 100.9 A 17.08 17.08 0 0 0 816.359 100.959 A 14.193 14.193 0 0 0 815.55 101.05 Q 814.5 101.2 813.6 101.4 Z M 1198.9 101.4 L 1197.7 94 Q 1198.8 93.8 1200 93.65 A 19.846 19.846 0 0 1 1202.136 93.503 A 22.171 22.171 0 0 1 1202.5 93.5 A 30.58 30.58 0 0 1 1208.444 94.051 A 22.904 22.904 0 0 1 1214.35 96.05 Q 1219.4 98.6 1223.35 102.9 Q 1227.3 107.2 1230.7 112.3 L 1225 116.4 A 64.782 64.782 0 0 0 1222.103 112.117 Q 1220.585 110.065 1219.056 108.399 A 36.432 36.432 0 0 0 1218.35 107.65 Q 1215 104.2 1211.3 102.55 A 19.174 19.174 0 0 0 1205.098 100.985 A 23.163 23.163 0 0 0 1203.1 100.9 A 17.08 17.08 0 0 0 1201.659 100.959 A 14.193 14.193 0 0 0 1200.85 101.05 Q 1199.8 101.2 1198.9 101.4 Z M 1308.8 101.4 L 1307.6 94 Q 1308.7 93.8 1309.9 93.65 A 19.846 19.846 0 0 1 1312.036 93.503 A 22.171 22.171 0 0 1 1312.4 93.5 A 30.58 30.58 0 0 1 1318.344 94.051 A 22.904 22.904 0 0 1 1324.25 96.05 Q 1329.3 98.6 1333.25 102.9 Q 1337.2 107.2 1340.6 112.3 L 1334.9 116.4 A 64.782 64.782 0 0 0 1332.003 112.117 Q 1330.485 110.065 1328.956 108.399 A 36.432 36.432 0 0 0 1328.25 107.65 Q 1324.9 104.2 1321.2 102.55 A 19.174 19.174 0 0 0 1314.998 100.985 A 23.163 23.163 0 0 0 1313 100.9 A 17.08 17.08 0 0 0 1311.559 100.959 A 14.193 14.193 0 0 0 1310.75 101.05 Q 1309.7 101.2 1308.8 101.4 Z M 1365.6 101.4 L 1364.4 94 Q 1365.5 93.8 1366.7 93.65 A 19.846 19.846 0 0 1 1368.836 93.503 A 22.171 22.171 0 0 1 1369.2 93.5 A 30.58 30.58 0 0 1 1375.144 94.051 A 22.904 22.904 0 0 1 1381.05 96.05 Q 1386.1 98.6 1390.05 102.9 Q 1394 107.2 1397.4 112.3 L 1391.7 116.4 A 64.782 64.782 0 0 0 1388.803 112.117 Q 1387.285 110.065 1385.756 108.399 A 36.432 36.432 0 0 0 1385.05 107.65 Q 1381.7 104.2 1378 102.55 A 19.174 19.174 0 0 0 1371.798 100.985 A 23.163 23.163 0 0 0 1369.8 100.9 A 17.08 17.08 0 0 0 1368.359 100.959 A 14.193 14.193 0 0 0 1367.55 101.05 Q 1366.5 101.2 1365.6 101.4 Z M 1423.6 101.4 L 1422.4 94 Q 1423.5 93.8 1424.7 93.65 A 19.846 19.846 0 0 1 1426.836 93.503 A 22.171 22.171 0 0 1 1427.2 93.5 A 30.58 30.58 0 0 1 1433.144 94.051 A 22.904 22.904 0 0 1 1439.05 96.05 Q 1444.1 98.6 1448.05 102.9 Q 1452 107.2 1455.4 112.3 L 1449.7 116.4 A 64.782 64.782 0 0 0 1446.803 112.117 Q 1445.285 110.065 1443.756 108.399 A 36.432 36.432 0 0 0 1443.05 107.65 Q 1439.7 104.2 1436 102.55 A 19.174 19.174 0 0 0 1429.798 100.985 A 23.163 23.163 0 0 0 1427.8 100.9 A 17.08 17.08 0 0 0 1426.359 100.959 A 14.193 14.193 0 0 0 1425.55 101.05 Q 1424.5 101.2 1423.6 101.4 Z M 54.7 54.3 L 54.7 61.6 A 48.821 48.821 0 0 1 51.081 62.877 Q 49.266 63.434 47.607 63.762 A 28.134 28.134 0 0 1 46.85 63.9 Q 43.3 64.5 38 64.5 A 54.062 54.062 0 0 1 33.297 64.288 A 63.642 63.642 0 0 1 31.05 64.05 A 53.574 53.574 0 0 1 26.244 63.243 A 45.792 45.792 0 0 1 24.2 62.75 A 40.095 40.095 0 0 1 22.055 62.12 Q 21.057 61.794 20.215 61.449 A 17.941 17.941 0 0 1 19 60.9 L 21 54.9 Q 23 55.6 25.6 56.2 A 43.622 43.622 0 0 0 29.669 56.932 A 49.888 49.888 0 0 0 31.1 57.1 Q 34 57.4 36.9 57.4 Q 40.3 57.4 43.1 57.1 Q 45.9 56.8 48.7 56.15 Q 51.5 55.5 54.7 54.3 Z M 547.7 54.3 L 547.7 61.6 A 48.821 48.821 0 0 1 544.081 62.877 Q 542.266 63.434 540.607 63.762 A 28.134 28.134 0 0 1 539.85 63.9 Q 536.3 64.5 531 64.5 A 54.062 54.062 0 0 1 526.297 64.288 A 63.642 63.642 0 0 1 524.05 64.05 A 53.574 53.574 0 0 1 519.244 63.243 A 45.792 45.792 0 0 1 517.2 62.75 A 40.095 40.095 0 0 1 515.055 62.12 Q 514.057 61.794 513.215 61.449 A 17.941 17.941 0 0 1 512 60.9 L 514 54.9 Q 516 55.6 518.6 56.2 A 43.622 43.622 0 0 0 522.669 56.932 A 49.888 49.888 0 0 0 524.1 57.1 Q 527 57.4 529.9 57.4 Q 533.3 57.4 536.1 57.1 Q 538.9 56.8 541.7 56.15 Q 544.5 55.5 547.7 54.3 Z M 1036.5 49.5 L 1042.7 47.2 L 1059.9 68.7 L 1055.3 72.9 L 1036.5 49.5 Z M 349.5 88.4 Q 349.5 86 351.15 84.3 A 5.816 5.816 0 0 1 352.729 83.123 A 5.028 5.028 0 0 1 355 82.6 A 5.133 5.133 0 0 1 358.774 84.17 A 6.387 6.387 0 0 1 358.9 84.3 Q 360.5 86 360.5 88.4 A 6.41 6.41 0 0 1 360.171 90.491 A 5.482 5.482 0 0 1 358.9 92.55 A 5.214 5.214 0 0 1 355.143 94.199 A 6.323 6.323 0 0 1 355 94.2 A 5.248 5.248 0 0 1 351.257 92.655 A 6.89 6.89 0 0 1 351.15 92.55 A 5.566 5.566 0 0 1 349.506 88.71 A 7.342 7.342 0 0 1 349.5 88.4 Z" vector-effect="non-scaling-stroke" />
</svg>
